<?xml version="1.0" encoding="utf-8"?>
<!-- Generator: Adobe Illustrator 24.2.0, SVG Export Plug-In . SVG Version: 6.00 Build 0)  -->
<svg version="1.1" id="Layer_1" xmlns="http://www.w3.org/2000/svg" xmlns:xlink="http://www.w3.org/1999/xlink" x="0px" y="0px"
	 viewBox="0 0 697 402.1" style="enable-background:new 0 0 697 402.1;" xml:space="preserve">
<style type="text/css">
	.st0{fill:#050606;}
	.st1{fill:#070808;}
	.st2{fill:#1DB790;}
</style>
<g>
	<path class="st0" d="M106.1,102.9l8-0.2c0,0,2.9-0.7,2.8-5.9s0.2-22.1,0.2-22.1s0.1-4.4-6.2-5c-6.2-0.7-57.4,0.7-57.4,0.7
		s-4.2,0.4-4.1,4c0.1,3.6-0.2,24.2-0.2,24.2s0,3.5,4.5,4.2l10-0.1c0,0,0.7,8.3,3.1,14.7s8.7,33.7,8.7,33.7l9.6,37.7l2.9,10.8
		c0,0,1.8,3.9,7,5.5l33.4-0.1c0,0,5.4-0.3,8.8-5.7l5.2-17.8l10.6-41.5c0,0,3.3,8,6.4,18.7s5.4,23.7,5.4,23.7l4.2,16.3
		c0,0,2.4,5.8,6.4,6.4l36.4-0.4c0,0,5.2,0.5,6.7-9.6l8.8-37.1l14.6-54.7l27.5,0.1l10.2-33.3l-87.3,0.2c0,0-3.1,0.1-3.1,3.6
		c0,3.5,1.1,25.4,1.1,25.4s0.7,2.5,3.7,3s6.3,0.4,6.3,0.4l-3.9,23.5c0,0-3.5,25.8-5.6,27c-2.2,1.2-6.5-25.6-6.5-25.6
		c-2-9-4.5-18.3-7.4-27.8c-0.6-1.9-1.2-3.7-1.8-5.5c-1.3-2.6-2.8-6.6-6.7-8c-5-1.8-28.1-0.4-28.1-0.4s-3.8,0.1-6.9,7.5
		c-3.1,7.4-1.2,4.2-3.8,10.2l-1.7,6.3c0,0-10.3,41.7-11.7,41.8c-1.4,0.1-2.6-5.5-3.5-14.1c-0.8-8.6-3.7-20.7-4.1-22.7
		C108.3,113,106.1,102.9,106.1,102.9z"/>
	<path class="st0" d="M114.2,107.6c0,0-3.1,0-2.3,3.6s3.4,13.6,3.4,14.7c0,0,1.3,5.1,3.4,0.3c0,0,0.6-8.2-1-14.6
		c0,0,6.3-1.5,8.2-9.3c0,0,1.7-12.6,1.3-21.3l-0.1-3.6c0,0-0.6-2.4-2.1-2.4s-2.1,0.3-2.9,3.9s-1.1,22.3-1.1,22.3
		S119.5,107.7,114.2,107.6z"/>
	<path class="st0" d="M78.2,173.7c-0.9-1.3-2.4-1.8-3.5-1.3c-1.2,0.5-1.4,2-1.4,2.1c-0.1,1.1,0.4,1.9,0.5,2.1c1,1.8,2.3,4.5,3,8.1
		c0.2,1.1,0.5,2.3,0.5,4c0.1,4.8-1.7,8.4-3,11c-1,2.1-1.5,3.1-2.6,4.3c-2.5,2.9-5.6,3.9-9.1,5c-2.7,0.9-6.8,1.9-12,2
		c-2.3-0.1-4.6-0.2-6.8-0.3c0,0-2.9-0.4-2.7,2.1s7.3,3.8,7.3,3.8c5.1,0.5,9.2,0.1,12-0.3c2.2-0.4,4.6-0.8,7.6-2.1
		c1.8-0.8,5-2.2,7.9-5.3c2.6-2.8,3.7-5.5,4.6-7.7c2.9-7.3,2.2-13.7,2-15.4C81.8,180.2,79.6,176.1,78.2,173.7z"/>
	<path class="st0" d="M29.2,189c-0.1-1.2-0.5-11.8,7.7-18.4c5.5-4.4,11.9-4.6,13.6-4.6c1.7,0,5.2,0.3,9.2,1.9
		c8.6,3.5,11.7,10.1,11.7,16c0,4.3-0.2,9.2-2.9,13.8c-0.6,1-1.8,3-4.2,4.9c-6.9,5.6-15.9,4.1-18.4,3.7c-3.8-0.6-9.9-1.6-13.7-6.9
		C29.3,195.3,29.1,190.9,29.2,189z"/>
	<path class="st0" d="M103,210.5c0,0-5-0.1-4.1,3.8c0,0,0.1,0.5,0.7,1.1c1.6,1.4,4.2,1.2,4.2,1.2c4.8-0.2,9.7,0.2,14.5,0.1
		c4.7-0.1,5.5,0.2,13.6,0.1c2.2,0,5.3-0.1,8.6-1.9c0.4-0.2,1.8-1,3.3-2.5c2.8-2.7,4.1-5.9,5.7-11.5c1-3.5,1-3.8,4-17.2
		c0.6-2.7,0.9-5.4,1.5-8.1c1-4.2,1.9-6.6,0.6-8.4c-0.5-0.7-1.5-1.3-2.4-1.2c-1.7,0.3-2.5,3.2-3,5.1c-2.3,8.6-3.4,12.9-3.7,14.5
		c-1,4.9-2.4,9.7-3.5,14.6l0,0c-0.1,1.1-0.5,3-1.6,4.9c-2.3,3.9-6.1,5.2-7.3,5.6c-1.6,0.5-2.8,0.6-7.4,0.5
		c-7.3-0.1-14.3-0.4-17.5-0.5C106.5,210.6,104.3,210.5,103,210.5z"/>
	<path class="st0" d="M184.9,110.3c0,0,3.4,14.5,3.7,16.2c0.3,1.7,1.9,6,3.9,1.3c2-4.7-2.1-17.1-2.1-17.1c-0.5-1.2-0.9-2.5-1.4-3.7
		c-1.1-1.6-2.7-2.2-3.6-1.7c-0.9,0.4-1,1.8-1.1,2.2C184.2,108.9,184.7,109.9,184.9,110.3z"/>
	<path class="st0" d="M197.4,210.3l-10.9-0.3c0,0-5.9-1-5.5,3.3c0,0-1,2.8,6.2,2.8c7.2,0,14.4,0.3,14.4,0.3l18.2-1
		c0,0,4.4-1.7,9.2-11.5c4.8-9.8,8-30,8-30s5-21.5,6.4-28.3c1.4-6.8,7-26.6,7-26.6s0.3-4.3,4.6-4.4s12.7,1.2,12.4-4.8
		c-0.3-6.1-0.8-9.5-0.8-9.5l-6.9,0.3l0.3,5.8c0,0,0.3,2.6-2.9,2.6c-3.2,0-6.8,0-6.8,0s-3.2-0.7-4.8,3.9c-1.7,4.6-7.2,27.1-7.2,27.1
		l-9.1,34.5l-6.5,25.8c0,0-2.5,8.7-9.8,9.4C205.6,210.3,197.4,210.3,197.4,210.3z"/>
	<path class="st0" d="M391,176.5c0,0,0.8-3-2.8-3.6c-3.6-0.6-13.4-0.6-13.4-0.6l-14.8-39.2c0,0-3.6-10.6-4.7-13.3S345,92.7,345,92.7
		l-6.9-16.4c0,0-2.6-5.4-9-5.8c-6.4-0.4-49.6-0.4-49.6-0.4l-12,38.3l-7,16.4c-6.1,16-8.9,22.6-9.8,24c0,0-0.2,0.3-0.4,0.7
		c-0.4,0.8-0.7,1.7-1.8,4.6c-0.7,1.9-1.8,4.7-3.2,8.1c-1.3,3.3-2.7,6.6-4,9.9c0,0-13.7,0.3-18.2,2.1l-0.8,5.9l0.4,20l5.9,5.1
		l63.1-0.3c0,0,3.3-0.7,3.3-4.7c0-4,0.1-20.3,0.1-20.3s0.3-3.3-3-3.6c-3.3-0.3-10.4-0.1-10.4-0.1l5.1-14.8l41.1,0.1l5.4,14.1
		l-11.2,0.3c0,0-3.5-0.1-3.6,3.9c-0.1,4,0.1,22.4,0.1,22.4s-0.6,2.6,4.6,2.8s61.6,0.3,61.6,0.3s5.5,0,5.9-5.7
		C391.3,194,391,176.5,391,176.5z M314.3,135.6c-3.8,0.3-17.1,0-17.1,0s-2.7-0.1-1.6-2.4c0,0,6.2-17.4,7.7-22.5c1.6-5.1,2-4.5,2-4.5
		s1.7-2.2,3.4,0c1.7,2.2,3.6,11.1,3.6,11.1s5.1,14.3,5.1,15.5S318.1,135.3,314.3,135.6z"/>
	<path class="st0" d="M307.2,115.9c-0.3,0.6-0.8,1.4-1.2,2.4c-1.2,2.4-1.1,2.8-2.5,6.1c-1,2.5-1.6,3.5-1.3,5.1
		c0.1,0.5,0.2,1.2,0.7,1.5c0.9,0.6,2.5,0.2,4.3-1.8C309.9,126.4,310.9,117.5,307.2,115.9z"/>
	<path class="st0" d="M293.2,165.8l29.6-0.2c0,0,3.6-0.2,3.6,4.1c0,0,0.2,2.2-3.2,2.5c-3.4,0.4-31.4,0.4-31.4,0.4s-3.2,0.7-2.5-2.9
		S293.2,165.8,293.2,165.8z"/>
	<path class="st0" d="M234.4,209.5c19.2,0.1,38.4,0.2,57.6,0.3c0,0,5.7-0.4,7.9-6.1c0.3-2.7,0.5-5.6,0.6-8.7c0.1-3,0.1-5.8,0.1-8.5
		c-0.2-0.7-0.1-1.7,0.1-2.9c0.3-1.5,1.1-2.9,3-3.1c0.2,0,0.7-0.1,1.2,0.2c1,0.5,1.2,1.7,1.4,2.7c0,0,0.2,1.1,0,4.4l0,0
		c0.2,4.5,0.1,9.6-0.5,15c-0.2,1.9-0.5,3.7-0.8,5.4c-0.2,1.2-0.7,3-2.1,4.5c-1.8,2-4.3,2.7-6.2,3c-11.6,1.8-64.2-0.1-64.2-0.1l0,0
		c0,0-3.6-0.4-4-3.6c0-0.2-0.2-1.5,0.5-2.2c0.3-0.3,0.7-0.4,2.6-0.4C232.8,209.4,233.7,209.5,234.4,209.5z"/>
	<path class="st0" d="M344.9,80.2l11.4,28.7l13.6,35.4l6.7,18.2c0,0,1.4,4.3,5.7,3.3c0,0,2.6-0.7,1-5.3c-1.6-4.6-8.2-21.2-8.2-21.2
		l-10-26.6l-7-16.4l-7.1-14.8c-0.4-0.8-1.1-1.9-2.3-2.9c-1.1-0.9-3.1-1.9-3.8-1.3C344.2,77.9,344.9,80.2,344.9,80.2L344.9,80.2z"/>
	<path class="st0" d="M396.1,180.2l-0.1,23.2c0,0-1.8,6.5-6.5,6.5s-61.4,0.5-61.4,0.5c-0.1,0-1.1-0.3-1.9,0.2
		c-0.8,0.6-0.8,1.6-0.8,2c0.1,1.8,1.8,2.9,2,3c0.9,0.3,2.1,0.6,3.7,0.8c1.5,0.2,2.6,0.2,3.8,0.3c6.4,0.1,6.6,0.1,6.6,0.1
		c9.3-0.1,50.9-0.5,50.4-0.5l0,0c0.9,0.1,4.5,0.2,7.5-2.4c2.1-1.9,2.9-4.2,3.2-5.2c0.4-1.2,0.4-2.1,0.5-3.4c0.1-1.6,0.2-3.9-0.3-6.7
		C400.6,192.6,398.4,186.4,396.1,180.2z"/>
	<path class="st0" d="M418.6,113l10.3,34.3c0,0,1.4,6.3,5.4,3.7c0,0,0.4-0.6,0.5-2c0.3-3.3-0.6-6-1-7c-1.3-3.4-3.6-11.7-6.9-23.3
		c-0.4-1.2-0.7-2.6-0.9-4.1c-0.1-0.8-0.2-1.6-0.3-2.3c1.3-0.2,3.4-0.8,5.3-2.4c1.6-1.3,2.8-3.2,3.8-7c1.2-4.8,1-8.4,0.7-14.1
		c-0.1-2.8-0.3-7.5-0.5-13.6c0-0.6-0.2-1.7-1-2.7c-0.3-0.4-0.8-1-1.6-1.1c-0.8-0.1-1.5,0.3-1.9,0.6c-1.1,0.7-1.4,1.9-1.5,2.3
		c-0.3,0.9-0.2,1.7-0.1,2.2c0,6.5-0.1,13-0.1,19.5c-0.2,2.4-0.8,4.3-1.2,5.6c-0.5,1.5-0.8,2.4-1.6,3.2c-1.5,1.7-3.8,2-4.8,2
		C421.2,106.7,417.3,106.5,418.6,113z"/>
	<path class="st0" d="M365,102.9l30.7,79.6l7.8,20.2c0,0,1.8,2.4,4.7,2.5c2.8,0.1,46.5,0.2,46.5,0.2s3,0.1,4.9-2.8
		c1.8-2.9,8.7-20.6,11.3-29.3c2.6-8.7,13.1-34.7,13.1-34.7l13.4-35.5l11.9-0.3c0,0,1.8,0.1,2.5-2.7c0.6-2.8,0.1-25.2,0.1-25.2
		s-0.2-3.9-3.8-4.6l-61.3,0.2c0,0-4.1-0.1-5.1,5.7s0.5,21.6,0.5,21.6s0.4,4,3.4,4.8c3,0.7,9.5,0.5,9.5,0.5l-21.3,66.9
		c0,0-1.1,2.3-1.8-0.3c-0.7-2.6-21.3-66.8-21.3-66.8l9.8-0.2c0,0,3.1-0.7,3-4.4S423,73.7,423,73.7s0.4-3.2-2.7-3.3
		c-3-0.1-65.1-0.4-65.1-0.4s-3.7-0.1-3.9,5.7s0.3,8.4,0.3,8.4l0.4,15.6c0,0-0.1,2.8,2,2.9C356,102.7,365,102.9,365,102.9z"/>
	<path class="st0" d="M516.3,79.5l-0.2,23.5c-0.1,0.5-0.2,1.4-0.6,2.3c-0.4,1.1-0.7,1.8-1.4,2.4c-0.9,0.7-1.9,0.8-2.5,0.8
		c-2.6,0-5.1,0-7.7,0c0,0-1.6,0-4,3.3s-6.7,15.9-6.7,15.9L474.3,177l1.6,3.3l9.2-11.7l17.1-46c0,0,2.3-6.8,7.9-7.9l5.1-1.1
		c0,0,2.8-0.6,4.8-3.3c1-1.4,1.4-2.8,1.6-3.8c0.7-3.7,1.1-12.2,0.8-23.4c0-1,0-2.4-0.2-4c-0.3-2.7-0.8-3.2-1-3.3
		c-1.2-1.1-3.7-0.9-4.5,0.2c-0.2,0.3-0.3,0.7-0.4,1.4C516.3,78.3,516.3,79,516.3,79.5z"/>
	<path class="st1" d="M256.5,265.5l13.6,4.4c0.7,0.3,2.5,0.8,3.7-0.1c0.9-0.7,1-2,1-2.6c0.1-3-0.2-12.2-0.8-24.5
		c0,0,0.5-15.1-31.4-19.7c-32-4.6-46.1,17.4-46.1,17.4l-4.9,19.3l4.6,16.6l7.6,11.6c0.3,3.6,1.6,10.9,7.2,16.7
		c4.2,4.4,9.2,6.2,14,7.9c5.2,1.9,9.5,2.4,11.3,2.6c4,0.4,6.7,0.1,12.1-0.4c8.7-0.9,9.8-2.1,10.3-2.9c0.5-0.7,0.4-2.7,0.4-6.7
		c0-4.1-0.3-6-0.7-7.6c-0.6-2.5-0.9-3.7-1.8-4.4c-1-0.7-1.9-0.4-7.5-0.1c-1.1,0.1-2.4,0.1-3.7,0.1c-3,0-5.5-0.3-7.1-0.5
		c-5.8-2.5-11.6-5.1-17.4-7.6c-2-2.2-6.1-7.6-6.2-14.9c0-3.4,0.8-6,1.6-8.4c2.4-7.3,6.6-11.5,7.5-12.4c1.3-1.2,2.5-2.1,3.3-2.7
		c0.5-0.3,1.2-0.7,2.2-1.1c2.5-1,4.9-1.1,6.3-0.9c6,0.7,19.7,5.2,19.7,5.2c-0.5,1.9-1,4.8-0.7,8.3
		C255,261.2,255.8,263.7,256.5,265.5z"/>
	<path class="st1" d="M275.3,278c-2.3-0.2-5.1-0.6-8.2-1.5c-1.8-0.5-3.5-1.1-4.9-1.8c-2-0.8-3.9-1.6-5.9-2.4
		c-0.9-0.5-1.2-1.7-0.8-2.7c0.5-1,1.7-1.4,2.7-0.9l17,5.9V278z"/>
	<path class="st1" d="M235.7,246.4c-2.3,0.8-10.2,3.7-14.2,11c-1.8,3.3-2.4,7-2.6,7.8c-0.6,3.3-0.5,6.1-0.3,8
		c0.2,1.4,0.6,3.5,1.7,5.7c0.8,1.6,1.7,2.8,2.5,3.7c0.2,0.1,1,0.6,1.9,0.4c0.2,0,0.5-0.2,0.8-0.5c0.4-0.5,0.4-1.3,0-2.1
		c-0.7-0.9-1.5-2.2-2.2-3.9c-1.5-3.9-1-7.4-0.7-9.3c0.3-1.8,1.4-7.6,6.5-12.4c2.1-2,4.2-3.1,5.7-3.8
		C235.3,249.5,235.5,248,235.7,246.4z"/>
	<path class="st1" d="M264.7,298.2c-0.5-1.5-1.5-2.3-2.3-2.2c-0.5,0.1-0.8,0.5-0.8,0.6c-0.4,0.6-0.2,1.5,0,2.3
		c0.3,1.2,0.5,2.4,0.8,3.5c0.4,1.3,0.8,2.7,1,4.4c0.1,1.5,0.3,3.5-0.8,5.3c-0.7,1.1-1.6,1.8-2.2,2.2c-1.3,0.7-2.7,1.6-4.3,2
		c-3.3,1-8.9,1.9-18.1,1.6c-4.9-0.5-11.2-1.8-18.1-4.5c-4.9-1.9-9-4.2-12.2-6.3c-0.2-0.2-2.8-2-3.9-1.2c-0.5,0.4-0.5,1.3-0.4,1.6
		c0.3,3.7,13.7,9.4,13.7,9.4s13.6,5.3,28,4.9c14.4-0.4,19.9-4.6,20.4-7.2C265.9,312,267.8,300.3,264.7,298.2z"/>
	<path class="st2" d="M235.6,257.2l12.2,3.9c0.8,0.5,2.4,1.2,3.6,0.6c1.1-0.6,1.5-2,1.6-2.5c0.7-2.8,3-8.8,6.8-17.7
		c0,0,1.8-3.5-1-7.5c-2.7-3.9-18-13.2-18-13.2c-3.1-1.6-7.6-3.6-13.3-5.2c-4.6-1.3-10-2.7-17.1-2.3c-9.6,0.6-16.2,4.1-17.7,4.9
		c-4.1,2.3-6.9,4.8-8,5.9c-6.2,5.9-10.3,13.9-10.3,13.9c-1.9,3.4-4,8.1-5.2,13.8c-2.9,14.7,2.3,26.6,4.6,31.3
		c2.6,3.4,6.1,7.4,10.9,11.2c9.4,7.5,18.9,10.7,24.9,12.1c2.4,0.4,5.9,0.9,10.1,1c2.9,0,5.3,0.1,8.3-0.5c4.7-0.9,8.6-1.7,10.2-4.6
		c0.8-1.5,0.1-1.5-0.8-12.5c-0.1-1.4-0.3-3.1-1.5-4.1c-1-0.7-2.1-0.6-4.5-0.5c-2.3,0.1-4.5,0.1-6.8,0.1c-3.4,0.1-6-0.4-7.9-0.7
		c-3.8-0.6-7.8-1.3-11.8-3.9c-2.1-1.4-6.1-4.5-8.4-9.9c-2.9-6.6-1.6-12.6-1.1-15.1c0.6-2.5,2.2-9.9,9.1-14.7
		c5.7-4,11.8-3.8,14.9-3.7c5.4,0.1,9.3,2,10.6,2.7c2.5,1.2,4.4,2.6,5.7,3.7c-1,2.4-1.8,4.5-2.3,6.1c-1.1,3.2-1.3,4.3-0.8,5.4
		C233.2,256.3,234.7,256.9,235.6,257.2z"/>
	<path class="st2" d="M212.4,244.4c-1.3,0.6-3.3,1.7-5.2,3.7c-2.6,2.6-3.6,5.3-4.2,6.8c-0.4,1-1.7,4.7-1.4,9.8
		c0.2,2.4,0.7,4.3,1.1,5.7c0.3,0.4,2.6,3.7,1.8,4.4c-0.1,0.1-0.4,0.2-0.6,0.2c0,0-0.9,0.2-1.9-0.2c-0.6-0.3-3.4-2.3-4.5-8.4
		c-0.3-1.7-2-12,5-20c3.6-4.1,7.7-5.6,8.5-5.9c1.7-0.6,5.4-1.7,9.9-0.9c5.3,0.9,10.7,4.2,10.3,6.3c-0.1,0.4-0.4,0.8-0.4,0.8
		c-1,1.1-3.6,0.3-4.3,0c0,0-0.3-0.1-2.6-1.1c-1-0.4-2.2-0.8-3.5-1.1C217.3,243.7,214.4,244,212.4,244.4z"/>
	<path class="st2" d="M240.6,290c0,0,1.1,10.1,1.1,11c0,1,1.1,4.9-7.2,7.5c-8.3,2.6-24.2,1-24.2,1c-4.8-0.5-8.2-1.9-10.5-3
		c-7-3.6-11.5-5.8-14.2-7.6c-0.4-0.3-1.6-1.2-2.7-0.8c-0.1,0-0.8,0.3-1.1,1c-0.2,0.6,0,1.4,0.5,1.9c4,3,14.9,10.6,26.7,12.2
		c4.8,0.7,11.8,0.7,12.9,0.7c5.6,0,8.2-0.4,9.9-0.7c7.1-1.3,9.6-3.3,10.9-4.6c1-1.1,1.6-2.1,1.7-2.4c0.4-0.9,1.3-2.7,1-8.3
		c-0.4-6.9-1.8-8.5-2.4-9c-0.3-0.3-1.1-1-1.8-0.7C240.8,288.4,240.6,289.1,240.6,290z"/>
	<path class="st2" d="M238.1,261.2l11.9,4.1c0,0,4.6,2.1,5.3-2.3c0,0,5.2-16.1,6.9-19c0.2-0.4,0.7-1.2,1.4-1.2
		c0.9,0,1.4,1.5,1.4,1.5c0.6,1.6-0.2,3.3-0.7,4.5c-0.6,1.3-1.5,3.9-3.4,9c-0.9,2.5-0.9,2.9-2.2,6.2c-0.7,1.8-1.3,3.3-1.7,4.3
		c-0.2,0.4-0.6,1.1-1.4,1.5c-0.4,0.3-1.3,0.7-3.3,0.6c-2.3-0.2-4-1.2-4.2-1.3c-2-1.1-5.8-2.7-13-5c-0.1,0-0.9-0.3-1.2-1.2
		c-0.2-0.5-0.2-1.1,0.1-1.5C234.4,260.7,236.2,260.5,238.1,261.2z"/>
	<polygon class="st1" points="307.2,239.6 324.8,239.8 334.1,255.4 328.4,260.6 321.1,260.7 321,265.4 299.8,266 296.2,264.1 
		298,252.8 300.5,249.1 	"/>
	<path class="st1" d="M324.2,265.7c0,0,1.4-2.6,5-3.3c3.6-0.7,0.6,4.2,0.6,4.2L324.2,265.7z"/>
	<path class="st1" d="M297.4,280.3l-12.3,35.6v5.3l2.3,2.9l40,0.4c0.2,0,0.6-0.1,0.9-0.3c2.5-1.4,1.6-7.4,1.5-8.4
		c0,0-7.7-14.9-7.7-14.9l0,0l-1-3l-0.2-6l8.7-0.2l0.4-7.8l-2-3.5l-17.5-0.2L297.4,280.3z"/>
	<path class="st1" d="M324.1,297.6c0,0-0.6-4.2,4.9-4.1c5.4,0.1-1.2,4.5-1.2,4.5L324.1,297.6z"/>
	<path class="st1" d="M333,315.2l-0.3,9c0,0,0.1,3.4-2.7,3.4c-2.8,0-39.4,0-39.4,0s-2.4,0-1.3,1.9c1.1,1.9,5.1,1.8,5.1,1.8l37.6,0.4
		c0,0,4.2-0.2,4.4-5.2c0.2-5,0.1-11.2,0.1-11.2L333,315.2z"/>
	<path class="st1" d="M362.7,240.2l12.7-1.3l9.3,3.4l1.5,5.1l-0.3,10.6c0,0,0.3,2.7-2.8,2.7s-6.7,0-6.7,0l-0.3,43.8l6.7,0.4
		c0,0,2.2,0.3,2.2,3.4s-0.1,13.4-0.1,13.4s-0.4,3.4-3,3.6s-39,0.1-39,0.1s-3.1-1.5-3.1-10.2s3.6-30.3,3.6-30.3l11.2-39.9
		L362.7,240.2z"/>
	<path class="st1" d="M388.1,311.5c0,1.4,0.1,3.3,0.1,5.6c0,0.8-0.1,1.8-0.1,4c-0.2,4.6-0.3,5.3-0.9,6c-0.8,1-1.9,1.4-2.8,1.7
		c-1.6,0.6-3,0.5-4.3,0.4c-2.2-0.1-4.4,0-6.6-0.1c-2.2-0.1-1.6,0-9.9-0.1c0,0-3.7-0.1-17.5-0.4l0,0c0,0-3.3-0.4-2.8,1.9
		s6.1,2.1,6.1,2.1h36.2c1.1-0.1,2.9-0.4,4.2-1.6c1.3-1.3,1.6-2.9,1.9-6.4c0,0,0.4-14,0.4-14c-0.3-1.1-1.1-1.9-1.9-1.8
		c-0.8,0-1.4,0.9-1.5,1.1C388,310.4,388,311.2,388.1,311.5z"/>
	<path class="st1" d="M383,269.7l-0.4,29.1c0,0,0.3,4.2-3,3.3c-0.1-0.1-0.2-0.2-0.4-0.4c-0.7-0.8-0.8-1.9-0.8-3.4c0-1.3,0-2,0.1-2.5
		c0.1-0.6,0-0.3,0.3-11.5c0.2-7.2,0.2-7.4,0.2-9.6c0-3,0-5.4,0-7.1c0-0.8,0.2-2.3,0.8-2.8c0.1-0.1,0.4-0.3,1.6-0.6
		c0,0,4.6-0.4,4.6-0.4s3.4-0.6,3.4-5.4c0-4.8,5.5-1.8,5.5-1.8l-3.4,9.1c-0.8,1-1.7,1.4-2.2,1.7c-1.2,0.5-2.5,0.5-3.5,0.6
		c-1.5,0.1-2.2-0.1-2.6,0.4C382.8,268.7,382.9,269.2,383,269.7z"/>
	<path class="st2" d="M264.5,234.4l-0.2,14.6c0,0-0.8,3.1,3.4,3.5s6.4,0.3,6.4,0.3l-0.6,43.6l-8.2,0.3c0,0-1.6-1-1.6,3.7
		c0,4.8,0.4,13.6,0.4,13.6s0.1,2.4,3.1,2.4s38.5,0.4,38.5,0.4s3.1,0.1,3.1-4.6s0-13.6,0-13.6s-0.1-1.9-2.2-1.9s-6.4-0.1-6.4-0.1
		l0.1-13.6l27,0.3l0.4,13.3l-6.7,0.1c0,0-2.1-0.6-2.1,2.8s-0.1,14.8-0.1,14.8s-0.1,3.1,3.9,2.8c4-0.3,38.5,0,38.5,0s1.8,0.9,2.1-3
		s0.3-15.1,0.3-15.1s0.4-2.2-2.2-2.2s-6.7-0.1-6.7-0.1l0.4-44.1h7.2c0,0,2.2,0.6,2.4-2.1s0-15.7,0-15.7s0-2.1-2.2-2.2
		s-39.7-0.1-39.7-0.1s-2.4-0.6-2.5,3c-0.1,3.6-0.1,15.4-0.1,15.4s0.1,1.9,2.8,1.9c2.7,0,5.2,0,5.2,0l-0.1,11.8h-27.8l0.4-12h6.7
		c0,0,2.2,0.9,2.1-3.7c-0.1-4.6,0-14.8,0-14.8s0.1-2.2-1.9-2.2s-40.6-0.4-40.6-0.4S264.2,231.4,264.5,234.4z"/>
	<path class="st2" d="M316.7,237l-0.2,16.8c0,0-0.2,4.8-4.8,4.8s-4.5,0-4.5,0l-0.1,2.6c-0.1,0.2-0.2,0.5-0.5,0.8
		c-0.6,0.5-1.3,0.4-1.5,0.4c-0.3,0-0.9-0.1-1.3-0.6c-0.4-0.5-0.4-1.1-0.4-1.2c0.1-1.3,0.1-2.6,0.2-3.9c0,0,0.2-1.9,2.7-1.9
		s4.8,0,4.8,0s1.3,0.1,1.3-4c0-4,0.6-15.1,0.6-15.1c-0.1-1.1,0.4-1.9,1.1-2.2c0.7-0.2,1.4,0.2,1.5,0.3
		C316.5,234.5,316.9,235.7,316.7,237z"/>
	<path class="st2" d="M308.1,289.8c3.5,0.1,7.1,0.2,10.6,0.2c1.1,0.2,2,0.1,2.6,0c1.3-0.2,1.7-0.5,1.9-0.6c0.1-0.1,0.9-0.8,0.7-1.5
		c-0.1-0.6-0.7-0.9-1.2-1.1c-1-0.5-1.8-0.5-2-0.5c-5.6,0-7.5,0.1-9.8,0c-1.3-0.1-2.7,0-4-0.1c-1.5-0.1-2.4-0.1-3,0.5
		c-0.3,0.3-0.4,0.8-0.5,1.7c-0.1,0.6,0,0.9,0,2.4c0.1,1.8,0,2.1,0.3,2.5c0.5,0.6,1.2,0.8,1.4,0.8c0.2,0,0.9,0.1,1.5-0.3
		c0.6-0.5,0.6-1.2,0.6-1.3c0.1-0.9,0.1-1.8,0.2-2.7C307.6,289.8,307.9,289.8,308.1,289.8z"/>
	<path class="st2" d="M311.9,300.4l-0.1,15.6c0,0,0,4-3.5,3.7c-12.9-0.1-25.7-0.2-38.6-0.2c-0.2,0-0.8,0.2-1.2,0.9
		c-0.6,0.9,0,2,0.1,2.1c0.5,0.8,1.3,1,1.5,1c13.5,0.2,26.9,0.4,40.4,0.6c0,0,4.5,1.3,4.8-6.9c0.2-8.2,0.1-15.4,0.1-15.4
		c0-0.3,0-1.2-0.7-1.9c-0.1-0.1-1.1-1.1-1.9-0.7C312,299.4,311.9,300.3,311.9,300.4z"/>
	<path class="st2" d="M323.6,320.4l38,0.3c0,0,4.3,1.3,5-5.5c0.8-6.8,0.4-12.2,0.4-12.2c0.1-1.1,0.8-1.9,1.5-2.1
		c1-0.2,2.5,0.8,2.6,2.6c-0.1,5.2-0.3,10.5-0.4,15.7c-0.2,0.9-0.7,2.6-2.3,3.9c-0.8,0.7-1.8,1.1-4,1.5c-3.3,0.6-5.9,0.3-7.2,0.3
		c-3.1-0.2-6.1-0.1-9.2-0.3c-2.2-0.1-1,0-12.2-0.3c-5.6-0.1-11.6-0.3-11.6-0.3l0,0c-1.3,0-2.2-1-2.1-2
		C322.3,321.4,322.9,320.7,323.6,320.4z"/>
	<path class="st2" d="M362,261.3l-0.8,31c0,0-0.4,2.9-3.3,2c0,0-0.9-0.5-0.6-5.5c0.3-5,0.4-29.8,0.4-29.8s0-1.2,0.8-2
		c0.7-0.7,1.5-0.8,3-1c4.3-0.5,4.8-0.2,5.4-0.8c0.5-0.4,0.7-0.9,0.9-4.7c0.2-4.3,0.1-7.7,0.1-7.7c0-1.1,0.1-2.3,0.1-3.4
		c-0.1-1.1-0.2-1.9,0.3-2.4c0.4-0.4,0.9-0.4,1.4-0.5c1.1-0.1,2,0.2,2.6,0.5c0,1.3,0,2.6,0,3.9c0,2.1,0,5.7-0.1,10.9
		c0,3.4-0.1,5.9-1.8,7c-0.8,0.6-1.8,0.7-2.5,0.6c-0.7,0-1.7,0.1-3.1,0.2c-0.8,0.1-1.3,0.1-1.9,0.5C362.4,260.5,362.2,261,362,261.3z
		"/>
	<path class="st1" d="M412.2,215.4v-3.7c0-0.3,0-0.7,0.2-1.1c0.4-0.6,1.2-0.7,2.5-0.7c2.5-0.1,3.3,0.1,3.3,0.1
		c2.1,0.3,5.4,0.8,9.7,1.3l20.4-1.7c0,0,13.6,1.3,15.1-5.2s6.7,9.7,6.7,9.7l9.2,21.1l-1.1,4.9l-15.7,6c0,0-3.9,1.1-5.6-3.2
		c-1.7-4.3-2.8-7.1-2.8-7.1l-25.8,8.4l3.9,11.2l15.1-4.7c0,0,4.5-2.4,5.4,4.3s2.8-1.5,2.8-1.5s-1.5-3.7,2.6-1.9s8.6,11.6,8.6,11.6
		l0.6,1.5l14.2-5.4c0.5-0.1,1.9-0.3,2.9,0.5c0.4,0.4,0.7,0.9,1,1.3c0.3,0.6,0.5,1.1,0.7,1.4c2.3,6.9,4.6,13.8,6.9,20.7
		c0.4,0.7,0.8,1.8,0.8,3.3c0,0.9,0,2-0.8,2.9c-0.7,0.9-1.8,1.2-2.2,1.3L420,315c-0.8,0.3-2.6,1-4.2,0.2c-1.3-0.6-1.8-1.9-2.1-2.6
		c-2.7-6.5-4.9-15.7-4.9-15.7l-7.5-66.7L412.2,215.4z"/>
	<path class="st1" d="M453.3,239.7c0,0,1.7,2.6-1.5,3.9c-3.2,1.3-15.5,6-15.5,6s-1.7,0.9-2.8-2.2c-1.1-3,13.6-6.5,13.6-6.5
		L453.3,239.7z"/>
	<path class="st1" d="M484.5,245.1l-15.7,6.5c0,0-5.2,1.5-4.3-1.3c0.9-2.8,17-8.4,17-8.4L484.5,245.1z"/>
	<path class="st1" d="M489.9,264.7l7.1,21.7c0,0,2.2,6-3,7.1c-23.1,7.7-46.2,15.3-69.3,23c-1.6,0.3-2.6,0.9-3.2,1.3
		c-0.5,0.4-0.9,0.7-1.1,1.3c-0.2,1,0.4,2,1.1,2.5c1.3,1,3.4,0.4,6-0.5c2.9-1,6-1.7,8.8-2.8c3.8-1.5,7.8-2.7,11.6-4.1
		c0,0,8.9-3.3,24.5-8.8c5.9-2.1,14.3-4.9,24.7-8.2c0.8-0.4,2.1-1.3,3.1-3c0.8-1.3,1.4-3.1,1.2-5.4c-0.4-6.2-7.3-25-7.3-25
		c0-0.2-0.3-1.6-1.5-2.4c-0.1-0.1-1.5-0.9-2.4-0.3c-0.5,0.4-0.6,1-0.7,1.5C489.4,263.6,489.7,264.3,489.9,264.7z"/>
	<path class="st2" d="M369.7,229.4c0,0,2.8,12,4.4,15.5c0,0,0.2,1.7,4.1,1.4l5.8-1.4l13.8,40l-8,3.2c0,0-1.7,0-0.3,3.8
		c1.4,3.8,4.6,13.8,4.6,13.8c0.1,0.5,0.2,1.1,0.8,1.6c1.4,1.3,4.4,0.2,5.5-0.2c4.6-1.7,9.5-2.9,14.1-4.8c5.5-2.3,4.5-1.2,16.8-5.5
		c4.9-1.7,8.3-2.6,10.6-3.8c0,0,0.1,0,29.7-10.2c0,0,2.9-1.4,0.5-7.8c-2.5-6.4-7.7-21.8-7.7-21.8s-0.3-3.2-6.4-1.8l-12.9,5.2
		c0,0-2,0.8,0,5.2c2,4.4,2.6,6.7,2.6,6.7l-25,9l-4.6-12.7l14.9-5.2c0,0,3.2-1.2,0.8-6.1s-3.7-10.3-3.7-10.3s-0.9-2.1-4-0.9
		c-3.1,1.2-13.5,4.8-13.5,4.8l-4-11l24.4-8.6l4.4,10.6c0.6,0.2,1.4,0.3,2.5,0.3c1.5,0,2.5-0.5,3.7-0.9c1.6-0.6,3.2-1,4.8-1.5
		c1.6-0.6,4-1.4,6.9-2.3c0.6-0.4,1.3-1.1,1.7-2.1c0.6-1.7-0.2-3.4-0.5-4c-1.3-2.8-4.3-11.3-8.4-22.9c0,0-1.2-4.1-5.8-2.3
		c-4.6,1.8-70.5,24.2-70.5,24.2S369.1,227,369.7,229.4z"/>
	<path class="st2" d="M418,240.3l11.7-3.8c0.4-0.1,0.9-0.2,1.5-0.6c0.9-0.5,1.5-1.3,1.7-1.7c0-0.3-0.1-0.8-0.3-1.4
		c-0.2-0.4-0.4-1-0.7-1.2c-0.8-0.8-2.9-0.1-4.8,0.6c-4.4,1.5-6.6,2.3-7.1,2.4c-0.4,0.1-2.6,0.7-5.2,1.9c-1.1,0.5-1.8,0.8-2.2,1.6
		c-0.6,1.3,0.1,2.8,0.4,3.5c0.4,0.9,0.9,1.8,1.9,2.1c0.9,0.2,1.8-0.1,2.4-0.7C418.1,242.2,418.3,241.2,418,240.3z"/>
	<path class="st2" d="M434.1,246c1.2,4.1,2.4,8.2,3.5,12.3c0,0,1.2,2.6-2.6,4.3c-3.8,1.7-10.7,3.4-10.7,3.4s-0.8,0.2-1.3,0.9
		c-0.7,1-0.3,2.4,0.2,4c0.6,1.7,0.8,2.6,1.6,2.8c0.9,0.3,2.1-0.2,2.6-1.2c0.6-1.1-0.1-2.3-0.1-2.3c3.5-1.4,7.1-2.8,10.6-4.2
		c0,0,6.3-1.4,4.3-8.3c-2-6.9-4.1-13.5-4.1-13.5c0-0.1-0.4-1-1.4-1.2c-0.9-0.2-1.6,0.3-1.7,0.4C434.3,243.9,433.9,244.9,434.1,246z"
		/>
	<path class="st2" d="M444.4,240.5c0,0-3.1,2.6,0.3,3.8l17.3-6c0,0,3.7-0.3,1.8-8.3c-1.8-8-8.4-25.8-8.4-25.8s-0.9-2.3-2.4-2.3
		c-0.1,0-0.9,0-1.4,0.7c-0.6,0.8-0.2,2.1,0.3,3.5c1.4,4,2.1,6,2.5,6.7c0.2,0.6,0.8,2.2,1.8,5.5c0.8,2.4,1.8,5.7,3.1,9.7
		c0,0,1.6,4.7-0.6,6.8c-0.3,0.2-0.5,0.4-1.7,0.9c-2.1,0.9-3.2,1.3-5.2,1.8C450.1,238,447.6,238.8,444.4,240.5z"/>
	<path class="st2" d="M468.9,257l6.9,21.2c0,0,1.4,3.6-0.4,5.7c-0.7,0.8-1.6,1.1-1.9,1.2c-8.9,2.8-17.4,6.7-26.3,9.4
		c-2.9,0.9-0.7,0.3-11.5,3.9c0,0-9,3-31.7,10.3l0,0c0,0-5.8,1.8-4.3,3.7s20.9-4.1,20.9-4.1c16.9-5.8,33.8-11.7,50.8-17.5
		c1.1-0.3,2.6-0.7,4.3-1.7c1.4-0.8,3.2-1.8,4.3-3.5c2.1-3.3,0.5-7.5,0.2-8.3c-2.3-6.9-4.6-13.8-6.9-20.7c0-0.3-0.2-1.6-1.4-2.5
		c-0.2-0.1-1.3-1-2.3-0.5C468.7,254,468.3,255.5,468.9,257z"/>
	<path class="st0" d="M514.6,169.7c0,0-8.1,3.4-25.4,16.1L477,206.9l14.4,20.3l12.5,25.4c0,0,0.9,1.9,3.7,4c2.9,2.1,7,4.4,15.3,4.7
		c3.4,0.1,21.9,0.7,37.7-11.2c0,0,8-6,13.4-14.2c0.8-1.3,1.7-2.6,2.5-4.2c0.9-1.6,1.7-3.2,2.3-4.7c0.4-1.4,1.8-4.8-0.4-6.8
		c-2.6-2.4-12.9-7.2-12.9-7.2c-0.5-0.1-1.2-0.1-1.9,0.2c-1.2,0.6-1.6,1.8-2.3,3.2c-0.5,1-1.4,2.4-2.8,4c-2.3,1.8-4.7,3.7-7,5.5
		l-35.4,4.2c0,0-12.7-15.1-5.3-27.3c0,0,3.3-6.4,14.6-12.7l3.5-2c2,2.6,4,5.1,6,7.7c0.4,0.5,1.1,1.1,2.2,1.4c1.6,0.4,3-0.4,4-1
		c4-2.4,10.3-7,10.3-7s3.5-1.8,1.5-4.6c-2-2.8-11.6-17.1-11.6-17.1c-0.3-0.4-0.8-1.1-1.7-1.7c-1-0.8-4.5-2.9-18.4,1.6
		C518.6,168.1,517,168.6,514.6,169.7z"/>
	<path class="st0" d="M525.1,198.1c-1.1,0.6-2.7,1.6-4.3,3.2c-1,1-4.2,4.2-4.6,9.1c-0.4,3.9,1.1,6.9,2.3,9.4
		c1.6,3.3,2.9,5.9,5.3,7.1c3.5,1.8-4.2,1.8-4.2,1.8c-7.5-7.2-9.8-17.5-6-25.1c2.9-5.8,8.4-8.2,10.4-9c1.1-0.5,2.1-0.7,2.8-0.8
		c1.3-0.2,1.8,0.1,1.9,0.1c0.6,0.4,1.2,1.2,1,1.8c-0.2,0.5-0.7,0.6-2.1,1.1C526.5,197.4,525.7,197.8,525.1,198.1z"/>
	<path class="st0" d="M569.9,212.1c2.8,1.5,5.7,3.1,8.6,4.8c0.8,0.5,1.6,0.9,2.4,1.4c0.4,0.3,0.9,0.9,1.3,1.7
		c0.3,0.8,0.5,1.7,0.3,3.3c-0.2,1.9-0.7,3.4-1.2,4.6c-0.4,1.1-1.3,3.4-2.3,5.3c-2.5,4.6-7.1,11.8-15.2,18.4
		c-6.6,5.3-13,8.3-17.5,9.9c-1.9,0.3-3.1,1.2-3.1,2c0,0.7,0.7,1.1,0.9,1.2c1.4,0.9,3.4,0.3,6-0.7c3.8-1.5,5.7-2.2,7.4-3.2
		c3.8-2.2,9.6-5.6,15.6-12.2c2-2.2,3.5-4.2,4.5-5.6c2.3-3,4.9-7.1,6.9-12.4c1-2.6,1.6-5.1,2.1-7.2c0.2-0.6,0.4-1.8,0-3.3
		c-0.3-1.1-0.9-1.9-1.2-2.3c-0.8-0.9-2-2-3.6-3.2c-1.6-1.2-2.9-1.8-3.8-2.3c-1.4-0.8-3.5-1.7-6-2.5c-1.3-0.6-2.6,0-2.8,0.7
		C568.9,210.9,569.3,211.6,569.9,212.1z"/>
	<path class="st0" d="M537.1,153.9c0,0-2.1,2.6,0,5c2.1,2.5,6.9,5.4,6.9,5.4c0.4,2.3,1.1,3.8,1.8,4.8c0.4,0.6,0.8,1.1,1.7,2.4
		c0.8,1.1,1.3,2,1.7,2.7c2.4,3.5,4.9,6.9,7.3,10.4c0,0,1.7,3.1-0.6,4.9c-2.3,1.8-11.8,9.1-11.8,9.1c-0.1,0.1-0.3,0.3-0.4,0.7
		c-0.1,0.2-0.4,0.9,0.1,1.6c0.3,0.5,1,0.7,1.6,0.6c0.7-0.2,1.7-0.6,2.8-1.2c2-1,3.4-2.1,5.5-3.7c1.5-1.1,2.4-1.8,3.6-2.8
		c2.3-2,3.5-3.1,4.1-4.7c0.6-1.7,0.3-3.3,0.2-3.7c-0.3-2.1-1.4-3.2-3.7-6c-2.2-2.8-4.3-5.7-6.5-8.5l3.1-4.1l-8.4-10.3L537.1,153.9z"
		/>
	<path class="st2" d="M519.4,159.3c4,5.8,8.1,11.6,12.1,17.4c0,0,2.2,2.5-0.9,4.3c-3.1,1.8-10.8,8.1-10.8,8.1s-2.2,1.7-5-0.5
		c-2.8-2.2-5.5-6.6-5.5-6.6s-1.4-1.4-3.9,0.1c-2.6,1.5-15.5,6.3-17.1,16.6C486.7,209,491,216,491,216s3.3,7.1,13.6,12.9
		c0,0,10.8,4.4,22.4-4.7c0,0,10.9-10.6,13-16.2s7.5-1.5,7.5-1.5l8.8,5.2c0,0,5.5,2.2-0.2,11.9c-5.8,9.7-12.2,15.6-12.2,15.6
		s-16.5,14.6-33.8,14c-4.3-0.2-10.7,0.8-18-2c-5.1-2-8.6-4.8-11-6.8c-2.1-1.7-6.4-5.2-10.3-11.1c-6.6-9.7-7.7-19.4-8-23
		c-0.2-3.2-0.7-9.5,1.8-17.2c3.3-10,9.6-16.1,12.5-18.8c2.5-2.3,4.5-3.7,8.5-6.4c0.3-0.2,8.5-5.7,19.8-9.8c2.5-0.9,5.3-1.9,8.7-1.2
		C516.6,157.4,518.3,158.5,519.4,159.3z"/>
	<path class="st2" d="M507.1,188.9c0,0-9.6,3.9-11.9,11.7c0,0-2.3,6.3,4.3,14.7c0.8,1.2,2,2.7,3.7,4.1c3.5,2.8,7.1,3.6,9,3.8
		c0.3,0,0.7,0,1.1,0.1c0.5,0.1,0.9,0.2,1.1,0.5c0.1,0.2,0.2,0.4,0.2,1.5c-0.1,1.2-0.1,1.8-0.4,2.1c-0.5,0.5-1.3,0.4-1.9,0.3
		c-2.5-0.4-3.8-0.5-5-1c-2.1-0.8-4.3-1.7-6.8-3.6c-1.5-1.1-5.3-4.4-7.9-9.9c-0.7-1.6-1.3-3.3-1.7-5.3c-1.2-6.4-0.6-10.7,6.1-17.4
		c1-0.8,2-1.6,3.2-2.3c1.5-1,2.9-1.9,4.3-2.6c0.3-0.2,0.7-0.5,1.4-0.7c0.3-0.1,0.5-0.1,0.9-0.1c0.9,0.1,1.5,0.9,1.7,1.1
		c0.3,0.4,0.7,1,0.5,1.6c-0.1,0.4-0.4,0.7-0.9,1C507.7,188.6,507.3,188.7,507.1,188.9z"/>
	<path class="st2" d="M525.6,257.3c0,0,11.2-3.9,21-11.8c9.8-7.9,13.8-16.7,13.8-16.7s3.7-7.2,4.7-10.7c0.3-1.1,0.9-2.5,0.8-4.4
		c0-0.7-0.1-2.4-1.2-4.2c-1.2-2-3.1-3-6.9-5c0,0-0.3-0.1-4.5-2.2l0,0l0,0c-0.6-0.3-1.4-0.6-2.4-1c-1.3-0.5-1.7-0.5-2-0.4
		c-1,0.3-1.7,1.6-1.3,2.3c0.1,0.3,0.3,0.3,0.9,0.7c0.8,0.4,1.4,0.8,1.9,1.1c3,1.6,6.1,3.1,9.1,4.7c0,0,1,0.4,1.7,1.5
		c0.7,1,1,2.5,0,5.9c-0.8,2.9-1.9,5-2.7,6.5c-2,3.6-3.1,5.7-4.7,8c-5.1,7.3-11.9,12.5-14.7,14.5c-3.1,2-5.7,3.5-7.6,4.4
		c0,0-1.4,0.7-7.2,3.4l0,0c-0.4,0.2-0.8,0.4-1.4,0.8c-0.7,0.5-1.1,0.8-1.2,1.2c-0.2,0.7,0.5,1.7,1.2,2c0.5,0.2,0.9,0.1,1.4,0
		C524.9,257.6,525.4,257.4,525.6,257.3z"/>
	<path class="st2" d="M525.1,162.2c2.2,2.6,3.9,4.8,5.2,6.5c1.3,1.7,2.2,3.2,3.2,4.8c1.8,3,2.7,4.6,2.6,5.6
		c-0.1,1.2-0.9,2.2-6.5,6.4c-1.9,1.4-3.5,2.6-4.7,3.4c-0.2,0.1-2.9,1.5-2.7,2.9c0.1,0.7,0.8,1.1,1,1.2c2.6,1.4,6.3-3.1,14.9-8.8
		c0.6-0.4,1.9-1.2,2.5-2.8c0.8-2,0.3-4-0.2-5.1c-2.2-5.2-11.3-15.5-11.3-15.5c-0.7-0.9-1.3-1.8-2-2.7c-0.9,0-1.8,0.4-2.2,1.2
		C524.4,160.4,524.5,161.4,525.1,162.2z"/>
	<path class="st0" d="M552,136.3l8.9-12c0,0,0.5-1.8,4.1,0.7c3.6,2.5,7.3,6.1,7.3,6.1l-5.7,8.9l-9,5.8L552,136.3z"/>
	<polygon class="st0" points="574.7,152.2 580,146 583.1,148 589.3,138.8 598.5,140.2 603.1,143.4 605.8,148.1 605.8,151.6 
		597.9,161.1 588.9,164.5 578.7,160.4 	"/>
	<path class="st0" d="M603.5,160.4c1,0.8,2,1.6,3,2.4c0.1,0.1,0.4,0.3,0.7,0.5c0.3,0.2,0.5,0.3,0.8,0.3c0.6,0.1,1.1-0.5,1.4-0.7
		c0.3-0.3,0.8-0.8,0.7-1.4c0-0.2-0.1-0.5-1-1.2c-0.5-0.5-1-0.9-1.3-1.2c1.1-1.4,2.2-2.7,3.3-4.1l-4-1.7c-1.2,1.6-2.5,3.1-3.7,4.7
		c0,0-0.6,0.5-0.6,1.2C602.8,160,603.4,160.3,603.5,160.4z"/>
	<path class="st0" d="M587.7,192.8c0,0,0.8,4.9,1.6,5.4c0.8,0.5,12,8.6,12,8.6s2.6,1.7,4.2-0.8c1.6-2.5,21.8-29.5,21.8-29.5
		c0.3-0.4,0.9-1.3,0.8-2.4c-0.1-0.9-0.6-1.5-0.8-1.8c-1.8-2.1-4.6-4.1-6.4-5.4c-2.7-1.9-5.3-4.2-5.3-4.1l0,0
		c-0.3-0.2-0.8-0.4-1.3-0.4c-0.7,0-1.2,0.4-2.6,1.8c-0.9,0.9-1.3,1.4-3,3.6h-6.2L587.7,192.8z"/>
	<path class="st0" d="M619,148.8l1.7,3.6l-1.6,2.2c-0.1,0.2-0.3,0.5-0.3,0.8c0,0.8,0.8,1.3,1.2,1.6c1.2,0.9,2.7,1.9,4.4,3.1
		c2.5,1.8,5,3.5,7.5,5.3c0,0,2.4,1.8,4.4-0.1c2-2,23-31.4,23-31.4s2.5-3.4,0.3-5.4c-2.2-2-12.8-9.6-12.8-9.6l-2.6,1.1l-10.2,12
		L619,148.8z"/>
	<path class="st0" d="M609.2,121.3l-6.9-16.4c-0.1-0.3-0.3-0.8-0.4-1.4c0-1,0.4-1.8,0.6-2.1c0.6-0.7,1.2-1.5,1.8-2.2
		c0.8-1.1,1.7-2.1,2.5-3.1c0.3-0.4,0.8-1,0.8-1.8c0.1-1.2-0.8-2.2-1.5-3c-2-2-3.8-3.3-5.3-4.4c-2.2-1.6-4.3-3.4-6.5-5l-2.5,0.1
		l-13.6,16.5l6.7,22.9L598,123L609.2,121.3z"/>
	<path class="st0" d="M612.8,122l-7.3-17c0,0-1.1-1.5,1.1-3.7c2.1-2.2,5.2-6.1,5.2-6.1c0.2-0.2,0.8-0.8,0.9-1.7
		c0-0.6-0.2-1.1-0.3-1.4c-1.1-1.9-3.8-3.9-5.8-5.3c-2.7-1.9-3-2.2-3.6-2.6c-0.6-0.4-1.4-0.9-2.6-1.7c-2.7-1.9-3.1-2.3-3.1-2.9
		c0-0.7,0.8-1.3,1.4-1.6c0.9-0.4,2,0,3,0.5c3.7,2,12.6,9.8,13.3,10.4c0.4,0.3,1.4,1.1,1.8,2.5c0.3,1.1,0.1,2.1-0.1,2.6
		c-0.3,0.9-0.6,1.3-2.6,3.8c-2.1,2.8-1.7,2.3-2.1,2.8c-1.3,1.6-1.9,2-2.1,2.9c-0.3,1.1,0.1,2,0.4,2.6c2.3,5.4,4.7,10.8,7,16.2
		L612.8,122z"/>
	<path class="st0" d="M650.8,117.9l11.9,9.6c0.5,0.5,1.2,1.3,1.4,2.5c0.3,1.5-0.4,2.8-0.8,3.4c-1.4,2.4-9.9,13.9-21.9,29.3
		c0,0-3.2,4.5,0,4.8c0.3-0.1,0.6-0.2,1-0.4c1.2-0.5,1.8-1.4,2.4-2.2c0.7-1,1.6-1.9,2.3-2.9c1.4-1.9,1.5-2,3.6-4.6
		c2.5-3.3,5-6.8,7.4-10.3c2.4-3.4,5.2-7.4,8.3-11.9c0.4-0.6,1.1-1.9,1.3-3.5c0.3-2.1-0.5-3.7-0.8-4.5c-1.1-2.5-2.9-3.7-5.7-5.8
		c-1.6-1.2-4.3-3.2-8.2-6.1c-0.6-0.4-1.3-0.5-1.8-0.2c-0.7,0.3-0.8,1.1-0.8,1.2C650.2,117.1,650.8,117.8,650.8,117.9z"/>
	<path class="st0" d="M609.6,205.2c7.2-9.5,14.3-19,21.5-28.5c0,0,2-2.2,0.5-4.5c-1.5-2.2,0.5-2.6,2.2-1.7c1.7,0.9,3.6,3.4,1.6,7
		c-2,3.6-22.2,29.6-22.2,29.6s-1.8,3-3.8,1.6c-0.1-0.1-1-0.7-1-1.5c0-0.3,0.2-0.6,0.5-1.1C609.2,205.7,609.5,205.4,609.6,205.2z"/>
	<path class="st2" d="M542.4,116.4l2,1.4l10.2,7.4c0.2,0.2,0.6,0.5,0.9,1c0.1,0.2,0.3,0.6,0.4,1.2c0,0.7-0.2,1.2-0.3,1.5
		c-0.1,0.3-0.4,0.8-0.8,1.2c-0.7,0.8-1.4,1.7-2.1,2.5l9.2,7.7l7.9-11.2l-5-11.9l-2.4,3.2c0,0-1.6,1.3-4.5-1.6
		c-2.9-2.9-11.4-9.2-11.4-9.2c-0.4-0.5-0.4-1-0.4-1.2c0-0.6,0.4-1.1,0.9-1.8c0.3-0.4,0.6-0.7,0.8-0.9c7.5-10.3,15-20.6,22.5-30.9
		c0.2-0.3,0.7-0.9,1.5-1.1c1.1-0.3,2.2,0.2,3,0.7c3.4,2.1,10.8,8.9,11.2,9.2c0.4,0.3,0.8,0.9,1,1.7c0.3,1.3-0.3,2.5-1.3,4
		c-1,1.5-2.5,3.5-4.9,5.8c2.5,6.4,4.9,12.8,7.4,19.3c0.2,0.9,0.5,2.1,1.6,3c1.1,1,2.5,1.2,3.1,1.2c3.6,0.1,24.8,1.3,24.8,1.3l5.3-7
		c0,0,0.7-1.3,2-1.5c0.9-0.1,1.7,0.3,2.1,0.6c2.5,1.5,4.6,3.3,5.8,4.2c1.9,1.5,3.2,2.1,5.5,4.2c0.8,0.7,1.6,1.5,1.6,2.7
		c0,1-0.7,1.8-1,2.2l-24,31.7c0,0-0.3,0.5-1,0.8c-1.3,0.5-2.8-0.5-3.6-1c-2.6-1.7-6.2-4.2-10.6-7.4c-0.2-0.1-0.5-0.3-0.8-0.6
		c-0.5-0.4-0.8-0.6-0.8-0.8c-0.1-0.4,0.1-0.7,0.3-1.3c0.2-0.5,0.5-0.9,0.7-1.1c0.3-0.6,0.6-1.1,0.9-1.7l-12.9-1.7l-8.6,9.5l8.7,7.8
		l4.2-4.5c0,0,1.5-2.4,3.4-0.5c2,1.8,11.6,10.4,11.6,10.4c0.1,0.2,1.1,1.4,0.8,2.9c-0.2,0.7-0.5,1.1-0.8,1.4l-22.3,29.6
		c-0.3,0.3-0.9,0.8-1.6,0.8c-0.5,0-0.9-0.2-1.6-0.5c-0.4-0.2-1-0.6-1.6-1.1c-3.2-2.4-6.4-4.8-9.6-7.1c-0.3-0.1-1.6-0.9-2.1-2.6
		c-0.4-1.6,0.1-2.8,0.3-3.1c1.2-1.4,2.4-2.9,3.6-4.3l-34.4-26.9l-7,8.3l-14.1-11.8c0,0-2.8-1.1,1.1-5l21.8-27.9
		c0.1-0.2,0.6-1.1,1.8-1.3C541.5,116,542.2,116.3,542.4,116.4z"/>
	<path class="st2" d="M577.9,73.5l12.7,9.6c0.6,0.7,0.7,1.2,0.7,1.5c0.1,0.7-0.3,1.3-1.6,3.1c-0.8,1.1-1.2,1.7-1.2,1.8
		c-0.9,1.2-2.1,2.8-3.8,5.1c-0.2,0.2-0.4,0.5-0.5,1c-0.2,0.6-0.1,1.2,0.3,2.4c0.4,1.3,0.8,2.1,0.8,2.1c0.7,1.2,0.2,0.6,3,7
		c0.8,1.8,1.8,4,2.9,6.4c0.3,0.5,0.9,1.1,1.7,1.6c1.1,0.7,2.1,0.8,2.7,0.9c2,0.2,8,0.5,16.1,0.7c1,0.1,1.9,0,2.5,0
		c0.7,0,0.9-0.1,1.1-0.3c0.5-0.5,0.5-1.6,0-2.3c-0.3-0.4-0.7-0.5-2.3-0.8c-2-0.3-2.6-0.3-2.6-0.3c-4.9-0.2-7.3-0.3-8.6-0.3
		c-1.4,0-3.5-0.1-6.1-0.4c-2.4-5.4-4.8-10.7-7.1-16.1l6.5-8.5c0,0,2.1-2.8-0.7-5.8s-13.3-11.1-13.3-11.1c-0.9-0.9-2.2-1.2-3-0.8
		c-0.7,0.3-0.9,1-0.9,1C576.9,71.9,577.2,72.8,577.9,73.5z"/>
	<path class="st2" d="M619.5,156.2l22.8-30.6c0.3-0.4,0.6-1.1,0.8-2.1c0-0.2,0.2-1.4-0.3-2.6c-0.5-1.4-1.5-2-3.1-3.2
		c-2.1-1.5,2.9,2-4.4-3.3c0,0-1.3-0.9-5.1-4.5c-0.2-0.2-0.6-0.6-0.8-1.3c-0.1-0.3-0.3-0.9,0-1.5c0.2-0.6,0.8-0.9,1.2-1.1
		c1-0.3,1.9,0.5,2.5,0.9c2.5,2,4.5,3.7,5.1,4.3c1.2,1,2.9,2.5,4.7,3.8c0.5,0.4,1.6,1.2,2.9,2.5c0.5,0.5,0.8,0.9,1.1,1.2
		c0.2,0.5,0.6,1.5,0.7,2.8c0.1,1.7-0.2,4.1-2,6.7c-3.6,5.2-23,30.4-23,30.4c-0.1,0.1-1,0.8-2.1,0.5c-0.2,0-0.9-0.2-1.2-0.8
		C618.8,157.8,618.9,156.9,619.5,156.2z"/>
	<path class="st2" d="M557.8,131.2c0.5-0.6,1-1.2,1.6-1.9c1-1.2,1.3-1.6,1.1-1.9c-0.2-0.5-1.2-1-1.6-1.3c-0.1,0-0.1-0.1-0.2-0.3
		c0-0.1-0.1-0.1-0.1-0.2c-0.2-0.8,0.7-1.7,1.2-2.2c0.3-0.3,0.4-0.5,0.6-0.5c0.5-0.2,1.1,0.3,2.2,1.4c1.5,1.4,2.2,2.1,2.3,2.5
		c0,0.5-0.3,0.8-2.1,3.3c-0.5,0.6-0.9,1.1-1.1,1.5c0.5,0.3,1,0.7,1.5,1c0.1,0.1,0.2,0.4,0.2,0.7c0,0.3-0.1,0.6-0.7,1.3
		c-0.7,0.9-1.1,1.3-1.5,1.3c-0.1,0-0.2,0-0.6-0.3c-0.8-0.5-1.4-1-1.8-1.3c-1.2-1-1.2-1-1.3-1.2C557.1,132.3,557.6,131.5,557.8,131.2
		z"/>
	<path class="st2" d="M582.7,152.6l3.1,2.7c0.2,0.1,0.4,0.2,0.8,0.2c0.7,0,1.2-0.4,1.5-0.7c0.3-0.3,0.8-0.7,0.9-1.3
		c0.1-0.7-0.3-1.4-1-1.9l-0.7-0.8l3.1-3.7c0,0,1.3-1.2-0.5-2.6s-2.3-0.3-2.3-0.3l-4.6,5.8C582.8,150.1,581,151.3,582.7,152.6z"/>
	<path class="st2" d="M588,198l21.8-28.8c0,0,1.9-2,0.9-4.3s1.3-3.4,2.5-2.2c1.2,1.2,2.6,4.1,0.7,7.4c-2,3.3-21.4,29.5-21.4,29.5
		c-0.7,1.2-2,1.8-3.1,1.5c-0.2-0.1-1.3-0.3-1.6-1.3C587.5,198.9,587.9,198.1,588,198z"/>
</g>
</svg>
